<?xml version="1.0" encoding="UTF-8"?>
<svg id="_Слой_1" data-name="Слой 1" xmlns="http://www.w3.org/2000/svg" viewBox="0 0 500 500">
  <defs>
    <style>
      .cls-1 {
        fill: #ff9f1c;
        stroke-width: 0px;
      }
    </style>
  </defs>
  <path class="cls-1" d="M253.2,365.78c-17.95,0-32.5-14.55-32.5-32.5,0-17.95,14.55-32.5,32.5-32.5,17.95,0,32.5,14.55,32.5,32.5,0,17.95-14.55,32.5-32.5,32.5Z"/>
  <path class="cls-1" d="M333.28,282.5c-17.95,0-32.5-14.55-32.5-32.5s14.55-32.5,32.5-32.5,32.5,14.55,32.5,32.5c0,17.95-14.55,32.5-32.5,32.5Z"/>
  <circle class="cls-1" cx="253.2" cy="166.72" r="32.5"/>
  <path class="cls-1" d="M250,417.5c-8.08-.01-16.14-.54-24.15-1.6l3.59.48c-15.84-2.13-31.34-6.35-46.08-12.53l3.22,1.36c-14.39-6.08-27.94-14-40.31-23.53l2.73,2.11c-12.27-9.5-23.29-20.53-32.79-32.79.7.91,1.41,1.82,2.11,2.73-9.53-12.37-17.45-25.92-23.53-40.31.45,1.07.91,2.15,1.36,3.22-6.19-14.74-10.4-30.24-12.53-46.08.16,1.2.32,2.39.48,3.59-2.11-16.02-2.11-32.28,0-48.3-.16,1.2-.32,2.39-.48,3.59,2.13-15.84,6.35-31.34,12.53-46.08-.45,1.07-.91,2.15-1.36,3.22,6.08-14.39,14-27.94,23.53-40.31l-2.11,2.73c9.5-12.27,20.53-23.29,32.79-32.79l-2.73,2.11c12.37-9.53,25.92-17.45,40.31-23.53-1.07.45-2.15.91-3.22,1.36,14.74-6.19,30.24-10.4,46.08-12.53l-3.59.48c16.02-2.11,32.28-2.11,48.3,0l-3.59-.48c15.84,2.13,31.34,6.35,46.08,12.53l-3.22-1.36c14.39,6.08,27.94,14,40.31,23.53-.91-.7-1.82-1.41-2.73-2.11,12.27,9.5,23.29,20.53,32.79,32.79-.7-.91-1.41-1.82-2.11-2.73,9.53,12.37,17.45,25.92,23.53,40.31-.45-1.07-.91-2.15-1.36-3.22,6.19,14.74,10.4,30.24,12.53,46.08-.16-1.2-.32-2.39-.48-3.59,2.11,16.02,2.11,32.28,0,48.3.16-1.2.32-2.39.48-3.59-2.13,15.84-6.35,31.34-12.53,46.08.45-1.07.91-2.15,1.36-3.22-6.08,14.39-14,27.94-23.53,40.31l2.11-2.73c-9.5,12.27-20.53,23.29-32.79,32.79l2.73-2.11c-12.37,9.53-25.92,17.45-40.31,23.53l3.22-1.36c-14.74,6.19-30.24,10.4-46.08,12.53l3.59-.48c-8.01,1.06-16.07,1.59-24.15,1.6-7.06,0-13.83,6.2-13.5,13.5.33,7.31,5.93,13.51,13.5,13.5,20.1-.03,40.43-3.09,59.55-9.3,18.49-6,36.23-14.69,52.07-25.96,8.28-5.89,16.22-12.32,23.53-19.38,7.34-7.08,13.92-14.79,20.12-22.88,11.85-15.47,20.99-32.74,27.7-51.01,6.9-18.8,10.6-38.84,11.38-58.83s-1.68-40.74-7.18-60.17c-5.3-18.71-13.49-36.84-24.18-53.09-10.62-16.15-23.53-30.9-38.46-43.2-7.8-6.43-16-12.4-24.66-17.6-8.83-5.3-18.09-9.7-27.61-13.6-18.49-7.59-38.16-11.87-58.07-13.42s-40.89.25-60.61,5.03c-18.95,4.6-37.39,12.25-54.07,22.36s-31.71,22.53-44.52,36.97c-12.83,14.47-23.72,30.72-31.69,48.36-4.23,9.37-7.91,18.99-10.68,28.9-2.85,10.21-4.67,20.63-5.9,31.15-2.37,20.27-1.19,40.89,2.86,60.88,3.89,19.2,10.97,37.9,20.5,55.01,9.39,16.86,21.48,32.48,35.44,45.8,13.94,13.3,29.92,24.72,47.18,33.3,17.68,8.79,36.59,15.12,56.12,18.11,10.34,1.58,20.72,2.56,31.18,2.57,7.06,0,13.83-6.22,13.5-13.5-.33-7.32-5.93-13.49-13.5-13.5Z"/>
</svg>